# xmcd
#
# Track frame offsets:
#	182
#	12362
#	26610
#	39390
#	53292
#	67625
#	83185
#	97557
#	115202
#	132232
#	146160
#	160260
#	173980
#	187817
#	203445
#
# Disc length: 3066
#
# Revision: 3
# Processed by: cddbd v1.5.1PL0 Copyright (c) Steve Scherf et al.
# Submitted via: DiscPlay 4.0.4
# Normalized: r1:DSETVAR1,TDELIM( - ),TSWAP
#
DISCID=ae0bf80f
DTITLE=Various Artist - The Best of the Delta Blues
DYEAR=1900
DGENRE=
TTITLE0=Robert Johnson - Cross Road Blues
TTITLE1=Charley Patton - Mississippi Boweavil Blues
TTITLE2=Big Bill Broozny - Just a Dream No.2
TTITLE3=Sonny Boy Williamson - Million Year Blues
TTITLE4=Son House - My Black Mama
TTITLE5=Bessie Smith - Careless Love Blues
TTITLE6=Blind Willie Johnson - Praise God I'm Satisfied
TTITLE7=Muddy Waters - Walking Blues
TTITLE8=John Lee Hooker - Goin' Mad Blues
TTITLE9=Lowell Fulson - Step at a Time
TTITLE10=Blind Willie McTell - Stomp Down Rider
TTITLE11=Bukka White - Shake 'Em On Down
TTITLE12=Memphis Minnie - Picking the Blues
TTITLE13=Tampa Red - Bumble Bee Blues
TTITLE14=Jimmy Witherspoon - Sooner or Latter
EXTD=
EXTT0=
EXTT1=
EXTT2=
EXTT3=
EXTT4=
EXTT5=
EXTT6=
EXTT7=
EXTT8=
EXTT9=
EXTT10=
EXTT11=
EXTT12=
EXTT13=
EXTT14=
PLAYORDER=
